<?xml version="1.0" encoding="UTF-8" standalone="no"?>
<!DOCTYPE svg PUBLIC "-//W3C//DTD SVG 1.1//EN"
 "http://www.w3.org/Graphics/SVG/1.1/DTD/svg11.dtd">
<!-- Generated by graphviz version 2.38.0 (20140413.2041)
 -->
<!-- Title: Tree Pages: 1 -->
<svg width="1413pt" height="909pt"
 viewBox="0.00 0.00 1413.00 909.00" xmlns="http://www.w3.org/2000/svg" xmlns:xlink="http://www.w3.org/1999/xlink">
<g id="graph0" class="graph" transform="scale(1 1) rotate(0) translate(4 905)">
<title>Tree</title>
<polygon fill="white" stroke="none" points="-4,4 -4,-905 1409,-905 1409,4 -4,4"/>
<!-- 0 -->
<g id="node1" class="node"><title>0</title>
<path fill="#399de5" fill-opacity="0.407843" stroke="black" d="M900,-901C900,-901 721,-901 721,-901 715,-901 709,-895 709,-889 709,-889 709,-830 709,-830 709,-824 715,-818 721,-818 721,-818 900,-818 900,-818 906,-818 912,-824 912,-830 912,-830 912,-889 912,-889 912,-895 906,-901 900,-901"/>
<text text-anchor="start" x="717" y="-885.8" font-family="Helvetica,sans-Serif" font-size="14.00">mean concave points ≤ 0.051</text>
<text text-anchor="start" x="760.5" y="-870.8" font-family="Helvetica,sans-Serif" font-size="14.00">entropy = 0.952</text>
<text text-anchor="start" x="763" y="-855.8" font-family="Helvetica,sans-Serif" font-size="14.00">samples = 455</text>
<text text-anchor="start" x="753.5" y="-840.8" font-family="Helvetica,sans-Serif" font-size="14.00">value = [169, 286]</text>
<text text-anchor="start" x="764.5" y="-825.8" font-family="Helvetica,sans-Serif" font-size="14.00">class = benign</text>
</g>
<!-- 1 -->
<g id="node2" class="node"><title>1</title>
<path fill="#399de5" fill-opacity="0.941176" stroke="black" d="M716.5,-782C716.5,-782 596.5,-782 596.5,-782 590.5,-782 584.5,-776 584.5,-770 584.5,-770 584.5,-711 584.5,-711 584.5,-705 590.5,-699 596.5,-699 596.5,-699 716.5,-699 716.5,-699 722.5,-699 728.5,-705 728.5,-711 728.5,-711 728.5,-770 728.5,-770 728.5,-776 722.5,-782 716.5,-782"/>
<text text-anchor="start" x="592.5" y="-766.8" font-family="Helvetica,sans-Serif" font-size="14.00">worst radius ≤ 16.83</text>
<text text-anchor="start" x="606.5" y="-751.8" font-family="Helvetica,sans-Serif" font-size="14.00">entropy = 0.314</text>
<text text-anchor="start" x="609" y="-736.8" font-family="Helvetica,sans-Serif" font-size="14.00">samples = 282</text>
<text text-anchor="start" x="603.5" y="-721.8" font-family="Helvetica,sans-Serif" font-size="14.00">value = [16, 266]</text>
<text text-anchor="start" x="610.5" y="-706.8" font-family="Helvetica,sans-Serif" font-size="14.00">class = benign</text>
</g>
<!-- 0&#45;&gt;1 -->
<g id="edge1" class="edge"><title>0&#45;&gt;1</title>
<path fill="none" stroke="black" d="M757.07,-817.907C744.409,-808.288 730.806,-797.953 717.824,-788.09"/>
<polygon fill="black" stroke="black" points="719.915,-785.283 709.835,-782.021 715.68,-790.857 719.915,-785.283"/>
<text text-anchor="middle" x="713.217" y="-803.091" font-family="Helvetica,sans-Serif" font-size="14.00">True</text>
</g>
<!-- 20 -->
<g id="node21" class="node"><title>20</title>
<path fill="#e58139" fill-opacity="0.870588" stroke="black" d="M1040,-782C1040,-782 889,-782 889,-782 883,-782 877,-776 877,-770 877,-770 877,-711 877,-711 877,-705 883,-699 889,-699 889,-699 1040,-699 1040,-699 1046,-699 1052,-705 1052,-711 1052,-711 1052,-770 1052,-770 1052,-776 1046,-782 1040,-782"/>
<text text-anchor="start" x="885" y="-766.8" font-family="Helvetica,sans-Serif" font-size="14.00">worst perimeter ≤ 114.45</text>
<text text-anchor="start" x="914.5" y="-751.8" font-family="Helvetica,sans-Serif" font-size="14.00">entropy = 0.517</text>
<text text-anchor="start" x="917" y="-736.8" font-family="Helvetica,sans-Serif" font-size="14.00">samples = 173</text>
<text text-anchor="start" x="911.5" y="-721.8" font-family="Helvetica,sans-Serif" font-size="14.00">value = [153, 20]</text>
<text text-anchor="start" x="910" y="-706.8" font-family="Helvetica,sans-Serif" font-size="14.00">class = malignant</text>
</g>
<!-- 0&#45;&gt;20 -->
<g id="edge20" class="edge"><title>0&#45;&gt;20</title>
<path fill="none" stroke="black" d="M863.93,-817.907C876.591,-808.288 890.194,-797.953 903.176,-788.09"/>
<polygon fill="black" stroke="black" points="905.32,-790.857 911.165,-782.021 901.085,-785.283 905.32,-790.857"/>
<text text-anchor="middle" x="907.783" y="-803.091" font-family="Helvetica,sans-Serif" font-size="14.00">False</text>
</g>
<!-- 2 -->
<g id="node3" class="node"><title>2</title>
<path fill="#399de5" fill-opacity="0.980392" stroke="black" d="M455.5,-663C455.5,-663 339.5,-663 339.5,-663 333.5,-663 327.5,-657 327.5,-651 327.5,-651 327.5,-592 327.5,-592 327.5,-586 333.5,-580 339.5,-580 339.5,-580 455.5,-580 455.5,-580 461.5,-580 467.5,-586 467.5,-592 467.5,-592 467.5,-651 467.5,-651 467.5,-657 461.5,-663 455.5,-663"/>
<text text-anchor="start" x="335.5" y="-647.8" font-family="Helvetica,sans-Serif" font-size="14.00">radius error ≤ 0.626</text>
<text text-anchor="start" x="347.5" y="-632.8" font-family="Helvetica,sans-Serif" font-size="14.00">entropy = 0.136</text>
<text text-anchor="start" x="350" y="-617.8" font-family="Helvetica,sans-Serif" font-size="14.00">samples = 263</text>
<text text-anchor="start" x="349" y="-602.8" font-family="Helvetica,sans-Serif" font-size="14.00">value = [5, 258]</text>
<text text-anchor="start" x="351.5" y="-587.8" font-family="Helvetica,sans-Serif" font-size="14.00">class = benign</text>
</g>
<!-- 1&#45;&gt;2 -->
<g id="edge2" class="edge"><title>1&#45;&gt;2</title>
<path fill="none" stroke="black" d="M584.354,-706.909C551.108,-691.89 511.541,-674.017 477.395,-658.592"/>
<polygon fill="black" stroke="black" points="478.472,-655.237 467.917,-654.31 475.59,-661.617 478.472,-655.237"/>
</g>
<!-- 15 -->
<g id="node16" class="node"><title>15</title>
<path fill="#e58139" fill-opacity="0.274510" stroke="black" d="M719,-663C719,-663 594,-663 594,-663 588,-663 582,-657 582,-651 582,-651 582,-592 582,-592 582,-586 588,-580 594,-580 594,-580 719,-580 719,-580 725,-580 731,-586 731,-592 731,-592 731,-651 731,-651 731,-657 725,-663 719,-663"/>
<text text-anchor="start" x="590" y="-647.8" font-family="Helvetica,sans-Serif" font-size="14.00">worst texture ≤ 19.91</text>
<text text-anchor="start" x="606.5" y="-632.8" font-family="Helvetica,sans-Serif" font-size="14.00">entropy = 0.982</text>
<text text-anchor="start" x="613" y="-617.8" font-family="Helvetica,sans-Serif" font-size="14.00">samples = 19</text>
<text text-anchor="start" x="612" y="-602.8" font-family="Helvetica,sans-Serif" font-size="14.00">value = [11, 8]</text>
<text text-anchor="start" x="602" y="-587.8" font-family="Helvetica,sans-Serif" font-size="14.00">class = malignant</text>
</g>
<!-- 1&#45;&gt;15 -->
<g id="edge15" class="edge"><title>1&#45;&gt;15</title>
<path fill="none" stroke="black" d="M656.5,-698.907C656.5,-690.649 656.5,-681.864 656.5,-673.302"/>
<polygon fill="black" stroke="black" points="660,-673.021 656.5,-663.021 653,-673.021 660,-673.021"/>
</g>
<!-- 3 -->
<g id="node4" class="node"><title>3</title>
<path fill="#399de5" fill-opacity="0.988235" stroke="black" d="M265,-544C265,-544 132,-544 132,-544 126,-544 120,-538 120,-532 120,-532 120,-473 120,-473 120,-467 126,-461 132,-461 132,-461 265,-461 265,-461 271,-461 277,-467 277,-473 277,-473 277,-532 277,-532 277,-538 271,-544 265,-544"/>
<text text-anchor="start" x="128" y="-528.8" font-family="Helvetica,sans-Serif" font-size="14.00">worst texture ≤ 30.145</text>
<text text-anchor="start" x="148.5" y="-513.8" font-family="Helvetica,sans-Serif" font-size="14.00">entropy = 0.091</text>
<text text-anchor="start" x="151" y="-498.8" font-family="Helvetica,sans-Serif" font-size="14.00">samples = 260</text>
<text text-anchor="start" x="150" y="-483.8" font-family="Helvetica,sans-Serif" font-size="14.00">value = [3, 257]</text>
<text text-anchor="start" x="152.5" y="-468.8" font-family="Helvetica,sans-Serif" font-size="14.00">class = benign</text>
</g>
<!-- 2&#45;&gt;3 -->
<g id="edge3" class="edge"><title>2&#45;&gt;3</title>
<path fill="none" stroke="black" d="M328.458,-579.907C311.633,-570.016 293.523,-559.368 276.321,-549.254"/>
<polygon fill="black" stroke="black" points="277.814,-546.072 267.42,-544.021 274.267,-552.106 277.814,-546.072"/>
</g>
<!-- 12 -->
<g id="node13" class="node"><title>12</title>
<path fill="#e58139" fill-opacity="0.498039" stroke="black" d="M482,-544C482,-544 313,-544 313,-544 307,-544 301,-538 301,-532 301,-532 301,-473 301,-473 301,-467 307,-461 313,-461 313,-461 482,-461 482,-461 488,-461 494,-467 494,-473 494,-473 494,-532 494,-532 494,-538 488,-544 482,-544"/>
<text text-anchor="start" x="309" y="-528.8" font-family="Helvetica,sans-Serif" font-size="14.00">mean compactness ≤ 0.063</text>
<text text-anchor="start" x="347.5" y="-513.8" font-family="Helvetica,sans-Serif" font-size="14.00">entropy = 0.918</text>
<text text-anchor="start" x="358" y="-498.8" font-family="Helvetica,sans-Serif" font-size="14.00">samples = 3</text>
<text text-anchor="start" x="357" y="-483.8" font-family="Helvetica,sans-Serif" font-size="14.00">value = [2, 1]</text>
<text text-anchor="start" x="343" y="-468.8" font-family="Helvetica,sans-Serif" font-size="14.00">class = malignant</text>
</g>
<!-- 2&#45;&gt;12 -->
<g id="edge12" class="edge"><title>2&#45;&gt;12</title>
<path fill="none" stroke="black" d="M397.5,-579.907C397.5,-571.649 397.5,-562.864 397.5,-554.302"/>
<polygon fill="black" stroke="black" points="401,-554.021 397.5,-544.021 394,-554.021 401,-554.021"/>
</g>
<!-- 4 -->
<g id="node5" class="node"><title>4</title>
<path fill="#399de5" stroke="black" d="M101,-417.5C101,-417.5 12,-417.5 12,-417.5 6,-417.5 0,-411.5 0,-405.5 0,-405.5 0,-361.5 0,-361.5 0,-355.5 6,-349.5 12,-349.5 12,-349.5 101,-349.5 101,-349.5 107,-349.5 113,-355.5 113,-361.5 113,-361.5 113,-405.5 113,-405.5 113,-411.5 107,-417.5 101,-417.5"/>
<text text-anchor="start" x="14.5" y="-402.3" font-family="Helvetica,sans-Serif" font-size="14.00">entropy = 0.0</text>
<text text-anchor="start" x="9" y="-387.3" font-family="Helvetica,sans-Serif" font-size="14.00">samples = 225</text>
<text text-anchor="start" x="8" y="-372.3" font-family="Helvetica,sans-Serif" font-size="14.00">value = [0, 225]</text>
<text text-anchor="start" x="10.5" y="-357.3" font-family="Helvetica,sans-Serif" font-size="14.00">class = benign</text>
</g>
<!-- 3&#45;&gt;4 -->
<g id="edge4" class="edge"><title>3&#45;&gt;4</title>
<path fill="none" stroke="black" d="M149.234,-460.907C134.77,-448.99 118.975,-435.976 104.586,-424.12"/>
<polygon fill="black" stroke="black" points="106.697,-421.325 96.7539,-417.667 102.246,-426.727 106.697,-421.325"/>
</g>
<!-- 5 -->
<g id="node6" class="node"><title>5</title>
<path fill="#399de5" fill-opacity="0.905882" stroke="black" d="M253.5,-425C253.5,-425 143.5,-425 143.5,-425 137.5,-425 131.5,-419 131.5,-413 131.5,-413 131.5,-354 131.5,-354 131.5,-348 137.5,-342 143.5,-342 143.5,-342 253.5,-342 253.5,-342 259.5,-342 265.5,-348 265.5,-354 265.5,-354 265.5,-413 265.5,-413 265.5,-419 259.5,-425 253.5,-425"/>
<text text-anchor="start" x="139.5" y="-409.8" font-family="Helvetica,sans-Serif" font-size="14.00">worst area ≤ 641.6</text>
<text text-anchor="start" x="148.5" y="-394.8" font-family="Helvetica,sans-Serif" font-size="14.00">entropy = 0.422</text>
<text text-anchor="start" x="155" y="-379.8" font-family="Helvetica,sans-Serif" font-size="14.00">samples = 35</text>
<text text-anchor="start" x="154" y="-364.8" font-family="Helvetica,sans-Serif" font-size="14.00">value = [3, 32]</text>
<text text-anchor="start" x="152.5" y="-349.8" font-family="Helvetica,sans-Serif" font-size="14.00">class = benign</text>
</g>
<!-- 3&#45;&gt;5 -->
<g id="edge5" class="edge"><title>3&#45;&gt;5</title>
<path fill="none" stroke="black" d="M198.5,-460.907C198.5,-452.649 198.5,-443.864 198.5,-435.302"/>
<polygon fill="black" stroke="black" points="202,-435.021 198.5,-425.021 195,-435.021 202,-435.021"/>
</g>
<!-- 6 -->
<g id="node7" class="node"><title>6</title>
<path fill="#399de5" stroke="black" d="M162.5,-298.5C162.5,-298.5 78.5,-298.5 78.5,-298.5 72.5,-298.5 66.5,-292.5 66.5,-286.5 66.5,-286.5 66.5,-242.5 66.5,-242.5 66.5,-236.5 72.5,-230.5 78.5,-230.5 78.5,-230.5 162.5,-230.5 162.5,-230.5 168.5,-230.5 174.5,-236.5 174.5,-242.5 174.5,-242.5 174.5,-286.5 174.5,-286.5 174.5,-292.5 168.5,-298.5 162.5,-298.5"/>
<text text-anchor="start" x="78.5" y="-283.3" font-family="Helvetica,sans-Serif" font-size="14.00">entropy = 0.0</text>
<text text-anchor="start" x="77" y="-268.3" font-family="Helvetica,sans-Serif" font-size="14.00">samples = 25</text>
<text text-anchor="start" x="76" y="-253.3" font-family="Helvetica,sans-Serif" font-size="14.00">value = [0, 25]</text>
<text text-anchor="start" x="74.5" y="-238.3" font-family="Helvetica,sans-Serif" font-size="14.00">class = benign</text>
</g>
<!-- 5&#45;&gt;6 -->
<g id="edge6" class="edge"><title>5&#45;&gt;6</title>
<path fill="none" stroke="black" d="M171.438,-341.907C163.935,-330.652 155.779,-318.418 148.237,-307.106"/>
<polygon fill="black" stroke="black" points="151.071,-305.046 142.611,-298.667 145.246,-308.929 151.071,-305.046"/>
</g>
<!-- 7 -->
<g id="node8" class="node"><title>7</title>
<path fill="#399de5" fill-opacity="0.572549" stroke="black" d="M348.5,-306C348.5,-306 204.5,-306 204.5,-306 198.5,-306 192.5,-300 192.5,-294 192.5,-294 192.5,-235 192.5,-235 192.5,-229 198.5,-223 204.5,-223 204.5,-223 348.5,-223 348.5,-223 354.5,-223 360.5,-229 360.5,-235 360.5,-235 360.5,-294 360.5,-294 360.5,-300 354.5,-306 348.5,-306"/>
<text text-anchor="start" x="200.5" y="-290.8" font-family="Helvetica,sans-Serif" font-size="14.00">mean perimeter ≤ 86.26</text>
<text text-anchor="start" x="226.5" y="-275.8" font-family="Helvetica,sans-Serif" font-size="14.00">entropy = 0.881</text>
<text text-anchor="start" x="233" y="-260.8" font-family="Helvetica,sans-Serif" font-size="14.00">samples = 10</text>
<text text-anchor="start" x="236" y="-245.8" font-family="Helvetica,sans-Serif" font-size="14.00">value = [3, 7]</text>
<text text-anchor="start" x="230.5" y="-230.8" font-family="Helvetica,sans-Serif" font-size="14.00">class = benign</text>
</g>
<!-- 5&#45;&gt;7 -->
<g id="edge7" class="edge"><title>5&#45;&gt;7</title>
<path fill="none" stroke="black" d="M225.562,-341.907C231.43,-333.105 237.698,-323.703 243.759,-314.612"/>
<polygon fill="black" stroke="black" points="246.851,-316.283 249.486,-306.021 241.027,-312.4 246.851,-316.283"/>
</g>
<!-- 8 -->
<g id="node9" class="node"><title>8</title>
<path fill="#e58139" fill-opacity="0.666667" stroke="black" d="M270,-187C270,-187 127,-187 127,-187 121,-187 115,-181 115,-175 115,-175 115,-116 115,-116 115,-110 121,-104 127,-104 127,-104 270,-104 270,-104 276,-104 282,-110 282,-116 282,-116 282,-175 282,-175 282,-181 276,-187 270,-187"/>
<text text-anchor="start" x="123" y="-171.8" font-family="Helvetica,sans-Serif" font-size="14.00">worst symmetry ≤ 0.276</text>
<text text-anchor="start" x="148.5" y="-156.8" font-family="Helvetica,sans-Serif" font-size="14.00">entropy = 0.811</text>
<text text-anchor="start" x="159" y="-141.8" font-family="Helvetica,sans-Serif" font-size="14.00">samples = 4</text>
<text text-anchor="start" x="158" y="-126.8" font-family="Helvetica,sans-Serif" font-size="14.00">value = [3, 1]</text>
<text text-anchor="start" x="144" y="-111.8" font-family="Helvetica,sans-Serif" font-size="14.00">class = malignant</text>
</g>
<!-- 7&#45;&gt;8 -->
<g id="edge8" class="edge"><title>7&#45;&gt;8</title>
<path fill="none" stroke="black" d="M249.438,-222.907C243.57,-214.105 237.302,-204.703 231.241,-195.612"/>
<polygon fill="black" stroke="black" points="233.973,-193.4 225.514,-187.021 228.149,-197.283 233.973,-193.4"/>
</g>
<!-- 11 -->
<g id="node12" class="node"><title>11</title>
<path fill="#399de5" stroke="black" d="M396.5,-179.5C396.5,-179.5 312.5,-179.5 312.5,-179.5 306.5,-179.5 300.5,-173.5 300.5,-167.5 300.5,-167.5 300.5,-123.5 300.5,-123.5 300.5,-117.5 306.5,-111.5 312.5,-111.5 312.5,-111.5 396.5,-111.5 396.5,-111.5 402.5,-111.5 408.5,-117.5 408.5,-123.5 408.5,-123.5 408.5,-167.5 408.5,-167.5 408.5,-173.5 402.5,-179.5 396.5,-179.5"/>
<text text-anchor="start" x="312.5" y="-164.3" font-family="Helvetica,sans-Serif" font-size="14.00">entropy = 0.0</text>
<text text-anchor="start" x="315" y="-149.3" font-family="Helvetica,sans-Serif" font-size="14.00">samples = 6</text>
<text text-anchor="start" x="314" y="-134.3" font-family="Helvetica,sans-Serif" font-size="14.00">value = [0, 6]</text>
<text text-anchor="start" x="308.5" y="-119.3" font-family="Helvetica,sans-Serif" font-size="14.00">class = benign</text>
</g>
<!-- 7&#45;&gt;11 -->
<g id="edge11" class="edge"><title>7&#45;&gt;11</title>
<path fill="none" stroke="black" d="M303.562,-222.907C311.065,-211.652 319.221,-199.418 326.763,-188.106"/>
<polygon fill="black" stroke="black" points="329.754,-189.929 332.389,-179.667 323.929,-186.046 329.754,-189.929"/>
</g>
<!-- 9 -->
<g id="node10" class="node"><title>9</title>
<path fill="#399de5" stroke="black" d="M173.5,-68C173.5,-68 89.5,-68 89.5,-68 83.5,-68 77.5,-62 77.5,-56 77.5,-56 77.5,-12 77.5,-12 77.5,-6 83.5,-0 89.5,-0 89.5,-0 173.5,-0 173.5,-0 179.5,-0 185.5,-6 185.5,-12 185.5,-12 185.5,-56 185.5,-56 185.5,-62 179.5,-68 173.5,-68"/>
<text text-anchor="start" x="89.5" y="-52.8" font-family="Helvetica,sans-Serif" font-size="14.00">entropy = 0.0</text>
<text text-anchor="start" x="92" y="-37.8" font-family="Helvetica,sans-Serif" font-size="14.00">samples = 1</text>
<text text-anchor="start" x="91" y="-22.8" font-family="Helvetica,sans-Serif" font-size="14.00">value = [0, 1]</text>
<text text-anchor="start" x="85.5" y="-7.8" font-family="Helvetica,sans-Serif" font-size="14.00">class = benign</text>
</g>
<!-- 8&#45;&gt;9 -->
<g id="edge9" class="edge"><title>8&#45;&gt;9</title>
<path fill="none" stroke="black" d="M173.552,-103.726C168.194,-94.9703 162.524,-85.7032 157.141,-76.9051"/>
<polygon fill="black" stroke="black" points="160.08,-75.0028 151.875,-68.2996 154.109,-78.6563 160.08,-75.0028"/>
</g>
<!-- 10 -->
<g id="node11" class="node"><title>10</title>
<path fill="#e58139" stroke="black" d="M317,-68C317,-68 216,-68 216,-68 210,-68 204,-62 204,-56 204,-56 204,-12 204,-12 204,-6 210,-0 216,-0 216,-0 317,-0 317,-0 323,-0 329,-6 329,-12 329,-12 329,-56 329,-56 329,-62 323,-68 317,-68"/>
<text text-anchor="start" x="224.5" y="-52.8" font-family="Helvetica,sans-Serif" font-size="14.00">entropy = 0.0</text>
<text text-anchor="start" x="227" y="-37.8" font-family="Helvetica,sans-Serif" font-size="14.00">samples = 3</text>
<text text-anchor="start" x="226" y="-22.8" font-family="Helvetica,sans-Serif" font-size="14.00">value = [3, 0]</text>
<text text-anchor="start" x="212" y="-7.8" font-family="Helvetica,sans-Serif" font-size="14.00">class = malignant</text>
</g>
<!-- 8&#45;&gt;10 -->
<g id="edge10" class="edge"><title>8&#45;&gt;10</title>
<path fill="none" stroke="black" d="M223.821,-103.726C229.258,-94.9703 235.013,-85.7032 240.477,-76.9051"/>
<polygon fill="black" stroke="black" points="243.519,-78.6413 245.821,-68.2996 237.572,-74.9484 243.519,-78.6413"/>
</g>
<!-- 13 -->
<g id="node14" class="node"><title>13</title>
<path fill="#e58139" stroke="black" d="M397,-417.5C397,-417.5 296,-417.5 296,-417.5 290,-417.5 284,-411.5 284,-405.5 284,-405.5 284,-361.5 284,-361.5 284,-355.5 290,-349.5 296,-349.5 296,-349.5 397,-349.5 397,-349.5 403,-349.5 409,-355.5 409,-361.5 409,-361.5 409,-405.5 409,-405.5 409,-411.5 403,-417.5 397,-417.5"/>
<text text-anchor="start" x="304.5" y="-402.3" font-family="Helvetica,sans-Serif" font-size="14.00">entropy = 0.0</text>
<text text-anchor="start" x="307" y="-387.3" font-family="Helvetica,sans-Serif" font-size="14.00">samples = 2</text>
<text text-anchor="start" x="306" y="-372.3" font-family="Helvetica,sans-Serif" font-size="14.00">value = [2, 0]</text>
<text text-anchor="start" x="292" y="-357.3" font-family="Helvetica,sans-Serif" font-size="14.00">class = malignant</text>
</g>
<!-- 12&#45;&gt;13 -->
<g id="edge13" class="edge"><title>12&#45;&gt;13</title>
<path fill="none" stroke="black" d="M379.806,-460.907C375.044,-449.983 369.88,-438.137 365.072,-427.107"/>
<polygon fill="black" stroke="black" points="368.162,-425.435 360.957,-417.667 361.745,-428.232 368.162,-425.435"/>
</g>
<!-- 14 -->
<g id="node15" class="node"><title>14</title>
<path fill="#399de5" stroke="black" d="M523.5,-417.5C523.5,-417.5 439.5,-417.5 439.5,-417.5 433.5,-417.5 427.5,-411.5 427.5,-405.5 427.5,-405.5 427.5,-361.5 427.5,-361.5 427.5,-355.5 433.5,-349.5 439.5,-349.5 439.5,-349.5 523.5,-349.5 523.5,-349.5 529.5,-349.5 535.5,-355.5 535.5,-361.5 535.5,-361.5 535.5,-405.5 535.5,-405.5 535.5,-411.5 529.5,-417.5 523.5,-417.5"/>
<text text-anchor="start" x="439.5" y="-402.3" font-family="Helvetica,sans-Serif" font-size="14.00">entropy = 0.0</text>
<text text-anchor="start" x="442" y="-387.3" font-family="Helvetica,sans-Serif" font-size="14.00">samples = 1</text>
<text text-anchor="start" x="441" y="-372.3" font-family="Helvetica,sans-Serif" font-size="14.00">value = [0, 1]</text>
<text text-anchor="start" x="435.5" y="-357.3" font-family="Helvetica,sans-Serif" font-size="14.00">class = benign</text>
</g>
<!-- 12&#45;&gt;14 -->
<g id="edge14" class="edge"><title>12&#45;&gt;14</title>
<path fill="none" stroke="black" d="M426.643,-460.907C434.724,-449.652 443.507,-437.418 451.629,-426.106"/>
<polygon fill="black" stroke="black" points="454.699,-427.831 457.688,-417.667 449.013,-423.749 454.699,-427.831"/>
</g>
<!-- 16 -->
<g id="node17" class="node"><title>16</title>
<path fill="#399de5" stroke="black" d="M614.5,-536.5C614.5,-536.5 530.5,-536.5 530.5,-536.5 524.5,-536.5 518.5,-530.5 518.5,-524.5 518.5,-524.5 518.5,-480.5 518.5,-480.5 518.5,-474.5 524.5,-468.5 530.5,-468.5 530.5,-468.5 614.5,-468.5 614.5,-468.5 620.5,-468.5 626.5,-474.5 626.5,-480.5 626.5,-480.5 626.5,-524.5 626.5,-524.5 626.5,-530.5 620.5,-536.5 614.5,-536.5"/>
<text text-anchor="start" x="530.5" y="-521.3" font-family="Helvetica,sans-Serif" font-size="14.00">entropy = 0.0</text>
<text text-anchor="start" x="533" y="-506.3" font-family="Helvetica,sans-Serif" font-size="14.00">samples = 6</text>
<text text-anchor="start" x="532" y="-491.3" font-family="Helvetica,sans-Serif" font-size="14.00">value = [0, 6]</text>
<text text-anchor="start" x="526.5" y="-476.3" font-family="Helvetica,sans-Serif" font-size="14.00">class = benign</text>
</g>
<!-- 15&#45;&gt;16 -->
<g id="edge16" class="edge"><title>15&#45;&gt;16</title>
<path fill="none" stroke="black" d="M627.357,-579.907C619.276,-568.652 610.493,-556.418 602.371,-545.106"/>
<polygon fill="black" stroke="black" points="604.987,-542.749 596.312,-536.667 599.301,-546.831 604.987,-542.749"/>
</g>
<!-- 17 -->
<g id="node18" class="node"><title>17</title>
<path fill="#e58139" fill-opacity="0.819608" stroke="black" d="M822,-544C822,-544 657,-544 657,-544 651,-544 645,-538 645,-532 645,-532 645,-473 645,-473 645,-467 651,-461 657,-461 657,-461 822,-461 822,-461 828,-461 834,-467 834,-473 834,-473 834,-532 834,-532 834,-538 828,-544 822,-544"/>
<text text-anchor="start" x="653" y="-528.8" font-family="Helvetica,sans-Serif" font-size="14.00">concave points error ≤ 0.01</text>
<text text-anchor="start" x="689.5" y="-513.8" font-family="Helvetica,sans-Serif" font-size="14.00">entropy = 0.619</text>
<text text-anchor="start" x="696" y="-498.8" font-family="Helvetica,sans-Serif" font-size="14.00">samples = 13</text>
<text text-anchor="start" x="695" y="-483.8" font-family="Helvetica,sans-Serif" font-size="14.00">value = [11, 2]</text>
<text text-anchor="start" x="685" y="-468.8" font-family="Helvetica,sans-Serif" font-size="14.00">class = malignant</text>
</g>
<!-- 15&#45;&gt;17 -->
<g id="edge17" class="edge"><title>15&#45;&gt;17</title>
<path fill="none" stroke="black" d="M685.296,-579.907C691.606,-571.014 698.348,-561.509 704.859,-552.331"/>
<polygon fill="black" stroke="black" points="707.823,-554.202 710.754,-544.021 702.114,-550.152 707.823,-554.202"/>
</g>
<!-- 18 -->
<g id="node19" class="node"><title>18</title>
<path fill="#e58139" stroke="black" d="M667,-417.5C667,-417.5 566,-417.5 566,-417.5 560,-417.5 554,-411.5 554,-405.5 554,-405.5 554,-361.5 554,-361.5 554,-355.5 560,-349.5 566,-349.5 566,-349.5 667,-349.5 667,-349.5 673,-349.5 679,-355.5 679,-361.5 679,-361.5 679,-405.5 679,-405.5 679,-411.5 673,-417.5 667,-417.5"/>
<text text-anchor="start" x="574.5" y="-402.3" font-family="Helvetica,sans-Serif" font-size="14.00">entropy = 0.0</text>
<text text-anchor="start" x="573" y="-387.3" font-family="Helvetica,sans-Serif" font-size="14.00">samples = 11</text>
<text text-anchor="start" x="572" y="-372.3" font-family="Helvetica,sans-Serif" font-size="14.00">value = [11, 0]</text>
<text text-anchor="start" x="562" y="-357.3" font-family="Helvetica,sans-Serif" font-size="14.00">class = malignant</text>
</g>
<!-- 17&#45;&gt;18 -->
<g id="edge18" class="edge"><title>17&#45;&gt;18</title>
<path fill="none" stroke="black" d="M696.826,-460.907C684.529,-449.211 671.122,-436.457 658.845,-424.78"/>
<polygon fill="black" stroke="black" points="661.026,-422.023 651.368,-417.667 656.201,-427.095 661.026,-422.023"/>
</g>
<!-- 19 -->
<g id="node20" class="node"><title>19</title>
<path fill="#399de5" stroke="black" d="M793.5,-417.5C793.5,-417.5 709.5,-417.5 709.5,-417.5 703.5,-417.5 697.5,-411.5 697.5,-405.5 697.5,-405.5 697.5,-361.5 697.5,-361.5 697.5,-355.5 703.5,-349.5 709.5,-349.5 709.5,-349.5 793.5,-349.5 793.5,-349.5 799.5,-349.5 805.5,-355.5 805.5,-361.5 805.5,-361.5 805.5,-405.5 805.5,-405.5 805.5,-411.5 799.5,-417.5 793.5,-417.5"/>
<text text-anchor="start" x="709.5" y="-402.3" font-family="Helvetica,sans-Serif" font-size="14.00">entropy = 0.0</text>
<text text-anchor="start" x="712" y="-387.3" font-family="Helvetica,sans-Serif" font-size="14.00">samples = 2</text>
<text text-anchor="start" x="711" y="-372.3" font-family="Helvetica,sans-Serif" font-size="14.00">value = [0, 2]</text>
<text text-anchor="start" x="705.5" y="-357.3" font-family="Helvetica,sans-Serif" font-size="14.00">class = benign</text>
</g>
<!-- 17&#45;&gt;19 -->
<g id="edge19" class="edge"><title>17&#45;&gt;19</title>
<path fill="none" stroke="black" d="M743.663,-460.907C744.761,-450.204 745.95,-438.615 747.061,-427.776"/>
<polygon fill="black" stroke="black" points="750.56,-427.972 748.098,-417.667 743.596,-427.258 750.56,-427.972"/>
</g>
<!-- 21 -->
<g id="node22" class="node"><title>21</title>
<path fill="#e58139" fill-opacity="0.164706" stroke="black" d="M1031,-663C1031,-663 898,-663 898,-663 892,-663 886,-657 886,-651 886,-651 886,-592 886,-592 886,-586 892,-580 898,-580 898,-580 1031,-580 1031,-580 1037,-580 1043,-586 1043,-592 1043,-592 1043,-651 1043,-651 1043,-657 1037,-663 1031,-663"/>
<text text-anchor="start" x="894" y="-647.8" font-family="Helvetica,sans-Serif" font-size="14.00">worst texture ≤ 25.655</text>
<text text-anchor="start" x="914.5" y="-632.8" font-family="Helvetica,sans-Serif" font-size="14.00">entropy = 0.994</text>
<text text-anchor="start" x="921" y="-617.8" font-family="Helvetica,sans-Serif" font-size="14.00">samples = 44</text>
<text text-anchor="start" x="916" y="-602.8" font-family="Helvetica,sans-Serif" font-size="14.00">value = [24, 20]</text>
<text text-anchor="start" x="910" y="-587.8" font-family="Helvetica,sans-Serif" font-size="14.00">class = malignant</text>
</g>
<!-- 20&#45;&gt;21 -->
<g id="edge21" class="edge"><title>20&#45;&gt;21</title>
<path fill="none" stroke="black" d="M964.5,-698.907C964.5,-690.649 964.5,-681.864 964.5,-673.302"/>
<polygon fill="black" stroke="black" points="968,-673.021 964.5,-663.021 961,-673.021 968,-673.021"/>
</g>
<!-- 30 -->
<g id="node31" class="node"><title>30</title>
<path fill="#e58139" stroke="black" d="M1174,-655.5C1174,-655.5 1073,-655.5 1073,-655.5 1067,-655.5 1061,-649.5 1061,-643.5 1061,-643.5 1061,-599.5 1061,-599.5 1061,-593.5 1067,-587.5 1073,-587.5 1073,-587.5 1174,-587.5 1174,-587.5 1180,-587.5 1186,-593.5 1186,-599.5 1186,-599.5 1186,-643.5 1186,-643.5 1186,-649.5 1180,-655.5 1174,-655.5"/>
<text text-anchor="start" x="1081.5" y="-640.3" font-family="Helvetica,sans-Serif" font-size="14.00">entropy = 0.0</text>
<text text-anchor="start" x="1076" y="-625.3" font-family="Helvetica,sans-Serif" font-size="14.00">samples = 129</text>
<text text-anchor="start" x="1075" y="-610.3" font-family="Helvetica,sans-Serif" font-size="14.00">value = [129, 0]</text>
<text text-anchor="start" x="1069" y="-595.3" font-family="Helvetica,sans-Serif" font-size="14.00">class = malignant</text>
</g>
<!-- 20&#45;&gt;30 -->
<g id="edge30" class="edge"><title>20&#45;&gt;30</title>
<path fill="none" stroke="black" d="M1019.66,-698.907C1036.01,-686.88 1053.87,-673.735 1070.1,-661.791"/>
<polygon fill="black" stroke="black" points="1072.45,-664.413 1078.43,-655.667 1068.3,-658.775 1072.45,-664.413"/>
</g>
<!-- 22 -->
<g id="node23" class="node"><title>22</title>
<path fill="#399de5" fill-opacity="0.894118" stroke="black" d="M1053,-544C1053,-544 876,-544 876,-544 870,-544 864,-538 864,-532 864,-532 864,-473 864,-473 864,-467 870,-461 876,-461 876,-461 1053,-461 1053,-461 1059,-461 1065,-467 1065,-473 1065,-473 1065,-532 1065,-532 1065,-538 1059,-544 1053,-544"/>
<text text-anchor="start" x="872" y="-528.8" font-family="Helvetica,sans-Serif" font-size="14.00">worst concave points ≤ 0.166</text>
<text text-anchor="start" x="914.5" y="-513.8" font-family="Helvetica,sans-Serif" font-size="14.00">entropy = 0.454</text>
<text text-anchor="start" x="921" y="-498.8" font-family="Helvetica,sans-Serif" font-size="14.00">samples = 21</text>
<text text-anchor="start" x="920" y="-483.8" font-family="Helvetica,sans-Serif" font-size="14.00">value = [2, 19]</text>
<text text-anchor="start" x="918.5" y="-468.8" font-family="Helvetica,sans-Serif" font-size="14.00">class = benign</text>
</g>
<!-- 21&#45;&gt;22 -->
<g id="edge22" class="edge"><title>21&#45;&gt;22</title>
<path fill="none" stroke="black" d="M964.5,-579.907C964.5,-571.649 964.5,-562.864 964.5,-554.302"/>
<polygon fill="black" stroke="black" points="968,-554.021 964.5,-544.021 961,-554.021 968,-554.021"/>
</g>
<!-- 25 -->
<g id="node26" class="node"><title>25</title>
<path fill="#e58139" fill-opacity="0.952941" stroke="black" d="M1247,-544C1247,-544 1108,-544 1108,-544 1102,-544 1096,-538 1096,-532 1096,-532 1096,-473 1096,-473 1096,-467 1102,-461 1108,-461 1108,-461 1247,-461 1247,-461 1253,-461 1259,-467 1259,-473 1259,-473 1259,-532 1259,-532 1259,-538 1253,-544 1247,-544"/>
<text text-anchor="start" x="1104" y="-528.8" font-family="Helvetica,sans-Serif" font-size="14.00">perimeter error ≤ 1.558</text>
<text text-anchor="start" x="1127.5" y="-513.8" font-family="Helvetica,sans-Serif" font-size="14.00">entropy = 0.258</text>
<text text-anchor="start" x="1134" y="-498.8" font-family="Helvetica,sans-Serif" font-size="14.00">samples = 23</text>
<text text-anchor="start" x="1133" y="-483.8" font-family="Helvetica,sans-Serif" font-size="14.00">value = [22, 1]</text>
<text text-anchor="start" x="1123" y="-468.8" font-family="Helvetica,sans-Serif" font-size="14.00">class = malignant</text>
</g>
<!-- 21&#45;&gt;25 -->
<g id="edge25" class="edge"><title>21&#45;&gt;25</title>
<path fill="none" stroke="black" d="M1038.4,-579.907C1056.66,-569.879 1076.33,-559.075 1094.96,-548.837"/>
<polygon fill="black" stroke="black" points="1096.65,-551.903 1103.73,-544.021 1093.28,-545.768 1096.65,-551.903"/>
</g>
<!-- 23 -->
<g id="node24" class="node"><title>23</title>
<path fill="#399de5" stroke="black" d="M919.5,-417.5C919.5,-417.5 835.5,-417.5 835.5,-417.5 829.5,-417.5 823.5,-411.5 823.5,-405.5 823.5,-405.5 823.5,-361.5 823.5,-361.5 823.5,-355.5 829.5,-349.5 835.5,-349.5 835.5,-349.5 919.5,-349.5 919.5,-349.5 925.5,-349.5 931.5,-355.5 931.5,-361.5 931.5,-361.5 931.5,-405.5 931.5,-405.5 931.5,-411.5 925.5,-417.5 919.5,-417.5"/>
<text text-anchor="start" x="835.5" y="-402.3" font-family="Helvetica,sans-Serif" font-size="14.00">entropy = 0.0</text>
<text text-anchor="start" x="834" y="-387.3" font-family="Helvetica,sans-Serif" font-size="14.00">samples = 19</text>
<text text-anchor="start" x="833" y="-372.3" font-family="Helvetica,sans-Serif" font-size="14.00">value = [0, 19]</text>
<text text-anchor="start" x="831.5" y="-357.3" font-family="Helvetica,sans-Serif" font-size="14.00">class = benign</text>
</g>
<!-- 22&#45;&gt;23 -->
<g id="edge23" class="edge"><title>22&#45;&gt;23</title>
<path fill="none" stroke="black" d="M934.316,-460.907C925.864,-449.542 916.671,-437.178 908.191,-425.774"/>
<polygon fill="black" stroke="black" points="910.938,-423.603 902.163,-417.667 905.321,-427.78 910.938,-423.603"/>
</g>
<!-- 24 -->
<g id="node25" class="node"><title>24</title>
<path fill="#e58139" stroke="black" d="M1063,-417.5C1063,-417.5 962,-417.5 962,-417.5 956,-417.5 950,-411.5 950,-405.5 950,-405.5 950,-361.5 950,-361.5 950,-355.5 956,-349.5 962,-349.5 962,-349.5 1063,-349.5 1063,-349.5 1069,-349.5 1075,-355.5 1075,-361.5 1075,-361.5 1075,-405.5 1075,-405.5 1075,-411.5 1069,-417.5 1063,-417.5"/>
<text text-anchor="start" x="970.5" y="-402.3" font-family="Helvetica,sans-Serif" font-size="14.00">entropy = 0.0</text>
<text text-anchor="start" x="973" y="-387.3" font-family="Helvetica,sans-Serif" font-size="14.00">samples = 2</text>
<text text-anchor="start" x="972" y="-372.3" font-family="Helvetica,sans-Serif" font-size="14.00">value = [2, 0]</text>
<text text-anchor="start" x="958" y="-357.3" font-family="Helvetica,sans-Serif" font-size="14.00">class = malignant</text>
</g>
<!-- 22&#45;&gt;24 -->
<g id="edge24" class="edge"><title>22&#45;&gt;24</title>
<path fill="none" stroke="black" d="M981.153,-460.907C985.635,-449.983 990.495,-438.137 995.02,-427.107"/>
<polygon fill="black" stroke="black" points="998.336,-428.247 998.893,-417.667 991.859,-425.59 998.336,-428.247"/>
</g>
<!-- 26 -->
<g id="node27" class="node"><title>26</title>
<path fill="none" stroke="black" d="M1249.5,-425C1249.5,-425 1105.5,-425 1105.5,-425 1099.5,-425 1093.5,-419 1093.5,-413 1093.5,-413 1093.5,-354 1093.5,-354 1093.5,-348 1099.5,-342 1105.5,-342 1105.5,-342 1249.5,-342 1249.5,-342 1255.5,-342 1261.5,-348 1261.5,-354 1261.5,-354 1261.5,-413 1261.5,-413 1261.5,-419 1255.5,-425 1249.5,-425"/>
<text text-anchor="start" x="1101.5" y="-409.8" font-family="Helvetica,sans-Serif" font-size="14.00">mean perimeter ≤ 86.76</text>
<text text-anchor="start" x="1135.5" y="-394.8" font-family="Helvetica,sans-Serif" font-size="14.00">entropy = 1.0</text>
<text text-anchor="start" x="1138" y="-379.8" font-family="Helvetica,sans-Serif" font-size="14.00">samples = 2</text>
<text text-anchor="start" x="1137" y="-364.8" font-family="Helvetica,sans-Serif" font-size="14.00">value = [1, 1]</text>
<text text-anchor="start" x="1123" y="-349.8" font-family="Helvetica,sans-Serif" font-size="14.00">class = malignant</text>
</g>
<!-- 25&#45;&gt;26 -->
<g id="edge26" class="edge"><title>25&#45;&gt;26</title>
<path fill="none" stroke="black" d="M1177.5,-460.907C1177.5,-452.649 1177.5,-443.864 1177.5,-435.302"/>
<polygon fill="black" stroke="black" points="1181,-435.021 1177.5,-425.021 1174,-435.021 1181,-435.021"/>
</g>
<!-- 29 -->
<g id="node30" class="node"><title>29</title>
<path fill="#e58139" stroke="black" d="M1393,-417.5C1393,-417.5 1292,-417.5 1292,-417.5 1286,-417.5 1280,-411.5 1280,-405.5 1280,-405.5 1280,-361.5 1280,-361.5 1280,-355.5 1286,-349.5 1292,-349.5 1292,-349.5 1393,-349.5 1393,-349.5 1399,-349.5 1405,-355.5 1405,-361.5 1405,-361.5 1405,-405.5 1405,-405.5 1405,-411.5 1399,-417.5 1393,-417.5"/>
<text text-anchor="start" x="1300.5" y="-402.3" font-family="Helvetica,sans-Serif" font-size="14.00">entropy = 0.0</text>
<text text-anchor="start" x="1299" y="-387.3" font-family="Helvetica,sans-Serif" font-size="14.00">samples = 21</text>
<text text-anchor="start" x="1298" y="-372.3" font-family="Helvetica,sans-Serif" font-size="14.00">value = [21, 0]</text>
<text text-anchor="start" x="1288" y="-357.3" font-family="Helvetica,sans-Serif" font-size="14.00">class = malignant</text>
</g>
<!-- 25&#45;&gt;29 -->
<g id="edge29" class="edge"><title>25&#45;&gt;29</title>
<path fill="none" stroke="black" d="M1234.75,-460.907C1251.86,-448.769 1270.59,-435.493 1287.55,-423.462"/>
<polygon fill="black" stroke="black" points="1289.59,-426.306 1295.73,-417.667 1285.54,-420.596 1289.59,-426.306"/>
</g>
<!-- 27 -->
<g id="node28" class="node"><title>27</title>
<path fill="#e58139" stroke="black" d="M1160,-298.5C1160,-298.5 1059,-298.5 1059,-298.5 1053,-298.5 1047,-292.5 1047,-286.5 1047,-286.5 1047,-242.5 1047,-242.5 1047,-236.5 1053,-230.5 1059,-230.5 1059,-230.5 1160,-230.5 1160,-230.5 1166,-230.5 1172,-236.5 1172,-242.5 1172,-242.5 1172,-286.5 1172,-286.5 1172,-292.5 1166,-298.5 1160,-298.5"/>
<text text-anchor="start" x="1067.5" y="-283.3" font-family="Helvetica,sans-Serif" font-size="14.00">entropy = 0.0</text>
<text text-anchor="start" x="1070" y="-268.3" font-family="Helvetica,sans-Serif" font-size="14.00">samples = 1</text>
<text text-anchor="start" x="1069" y="-253.3" font-family="Helvetica,sans-Serif" font-size="14.00">value = [1, 0]</text>
<text text-anchor="start" x="1055" y="-238.3" font-family="Helvetica,sans-Serif" font-size="14.00">class = malignant</text>
</g>
<!-- 26&#45;&gt;27 -->
<g id="edge27" class="edge"><title>26&#45;&gt;27</title>
<path fill="none" stroke="black" d="M1153.91,-341.907C1147.43,-330.763 1140.4,-318.658 1133.87,-307.439"/>
<polygon fill="black" stroke="black" points="1136.83,-305.554 1128.78,-298.667 1130.78,-309.072 1136.83,-305.554"/>
</g>
<!-- 28 -->
<g id="node29" class="node"><title>28</title>
<path fill="#399de5" stroke="black" d="M1286.5,-298.5C1286.5,-298.5 1202.5,-298.5 1202.5,-298.5 1196.5,-298.5 1190.5,-292.5 1190.5,-286.5 1190.5,-286.5 1190.5,-242.5 1190.5,-242.5 1190.5,-236.5 1196.5,-230.5 1202.5,-230.5 1202.5,-230.5 1286.5,-230.5 1286.5,-230.5 1292.5,-230.5 1298.5,-236.5 1298.5,-242.5 1298.5,-242.5 1298.5,-286.5 1298.5,-286.5 1298.5,-292.5 1292.5,-298.5 1286.5,-298.5"/>
<text text-anchor="start" x="1202.5" y="-283.3" font-family="Helvetica,sans-Serif" font-size="14.00">entropy = 0.0</text>
<text text-anchor="start" x="1205" y="-268.3" font-family="Helvetica,sans-Serif" font-size="14.00">samples = 1</text>
<text text-anchor="start" x="1204" y="-253.3" font-family="Helvetica,sans-Serif" font-size="14.00">value = [0, 1]</text>
<text text-anchor="start" x="1198.5" y="-238.3" font-family="Helvetica,sans-Serif" font-size="14.00">class = benign</text>
</g>
<!-- 26&#45;&gt;28 -->
<g id="edge28" class="edge"><title>26&#45;&gt;28</title>
<path fill="none" stroke="black" d="M1200.75,-341.907C1207.13,-330.763 1214.06,-318.658 1220.48,-307.439"/>
<polygon fill="black" stroke="black" points="1223.57,-309.084 1225.51,-298.667 1217.5,-305.606 1223.57,-309.084"/>
</g>
</g>
</svg>